<svg width="24" height="14" viewBox="0 0 24 14" fill="none" xmlns="http://www.w3.org/2000/svg">
<path d="M21.3924 9.6637C23.3201 11.4947 23.7181 12.3721 23.7803 12.4865C24.5763 13.8344 22.9097 13.9361 22.9097 13.9361L19.7009 13.9869C19.7009 13.9869 19.0045 14.1268 18.109 13.491C16.9026 12.6518 15.7459 10.4521 14.8878 10.7445C14.0048 11.037 14.0296 13.0079 14.0296 13.0079C14.0296 13.0079 14.0296 13.2876 13.8306 13.5038C13.6068 13.7453 13.1715 13.6563 13.1715 13.6563H11.7412C11.7412 13.6563 8.56975 13.9869 5.79629 11.0243C2.7492 7.79454 0.0627941 1.43684 0.0627941 1.43684C0.0627941 1.43684 -0.0864508 1.05538 0.0752311 0.839216C0.261787 0.63577 0.784144 0.63577 0.784144 0.63577H4.21678C4.21678 0.63577 4.55258 0.63577 4.76401 0.839216C4.95056 0.979086 5.0625 1.27154 5.0625 1.27154C5.0625 1.27154 5.60973 2.68295 6.35595 3.97992C7.78622 6.51029 8.44538 7.05705 8.90555 6.79002C9.65178 6.39585 9.44035 3.217 9.44035 3.217C9.44035 3.217 9.45279 2.0599 9.07967 1.55128C8.79362 1.1571 8.24639 1.02995 8.01009 1.00452C7.81109 0.979086 8.13446 0.521331 8.54488 0.30517C9.16673 0 10.2488 0 11.5422 0C12.5496 0 12.8357 0.0762924 13.2212 0.1653C14.4152 0.457754 14.0048 1.58942 14.0048 4.28509C14.0048 5.16245 13.8804 6.3577 14.4649 6.77731C14.7261 6.95532 15.3728 6.80274 16.9897 4.01807C17.7359 2.69567 18.308 1.13167 18.308 1.13167C18.308 1.13167 18.4324 0.864647 18.6189 0.737493C18.8179 0.63577 19.0915 0.63577 19.0915 0.63577H22.6983C22.6983 0.63577 23.7927 0.508616 23.9669 1.00452C24.1534 1.52585 23.5564 2.75924 22.0764 4.75556C19.6636 8.06156 19.39 7.75639 21.3924 9.6637Z" fill="#045CD7"/>
</svg>
