<?xml version="1.0" standalone="no"?>
<!DOCTYPE svg PUBLIC "-//W3C//DTD SVG 20010904//EN"
 "http://www.w3.org/TR/2001/REC-SVG-20010904/DTD/svg10.dtd">
<svg version="1.0" xmlns="http://www.w3.org/2000/svg"
 width="256.000000pt" height="256.000000pt" viewBox="0 0 256.000000 256.000000"
 preserveAspectRatio="xMidYMid meet">
<metadata>
Created by potrace 1.11, written by Peter Selinger 2001-2013
</metadata>
<g transform="translate(0.000000,256.000000) scale(0.100000,-0.100000)"
fill="#000000" stroke="none">
<path d="M1490 2266 c-3 -2 -32 -7 -65 -11 -33 -3 -69 -8 -80 -10 -11 -2 -40
-7 -65 -10 -25 -3 -56 -7 -70 -10 -14 -3 -46 -7 -71 -10 -25 -3 -56 -8 -70
-10 -13 -3 -43 -7 -66 -10 -52 -6 -110 -14 -143 -20 -14 -3 -47 -7 -75 -11
-27 -3 -57 -7 -65 -9 -8 -1 -87 -13 -175 -25 -88 -13 -165 -28 -170 -34 -6 -6
-49 -58 -95 -116 -84 -104 -115 -142 -135 -164 -6 -6 -37 -43 -68 -83 l-58
-71 20 -119 c11 -65 23 -138 26 -163 14 -103 27 -135 92 -229 36 -53 109 -160
162 -238 53 -79 103 -145 111 -147 8 -3 41 -8 73 -11 32 -4 67 -8 79 -10 11
-3 46 -7 77 -10 31 -4 67 -8 81 -10 55 -8 111 -15 235 -30 208 -25 189 -18
242 -91 15 -20 39 -28 143 -49 69 -14 144 -30 168 -37 47 -12 45 -5 43 -150
l-2 -78 223 0 223 0 54 133 c30 72 62 150 72 172 10 22 48 114 86 205 l68 165
68 -1 c37 -1 67 1 68 5 0 3 2 17 5 31 6 37 35 221 39 250 2 14 13 84 25 155
11 72 22 146 25 165 3 19 8 47 11 61 6 32 -4 43 -225 235 -18 16 -46 40 -61
54 -15 14 -58 52 -96 85 -38 33 -80 71 -95 85 -15 14 -44 40 -64 59 l-37 33
-107 -2 c-58 -1 -145 -3 -192 -4 l-86 -2 -24 45 c-21 41 -46 60 -59 47z"/>
</g>
</svg>
