<svg width="796" height="767" viewBox="0 0 796 767" fill="none" xmlns="http://www.w3.org/2000/svg">
<path fill-rule="evenodd" clip-rule="evenodd" d="M418.844 707.682C376.593 747.227 322.4 767 256.267 767C166.252 767 101.037 734.812 60.6222 670.435C42.2519 642.845 27.5556 608.818 16.5333 568.353C5.51111 527.887 0 485.583 0 441.439C0 345.794 24.3407 259.345 73.0222 182.094C121.704 104.842 193.807 44.1439 289.333 0L314.133 49.6619C260.859 71.7338 214.474 105.761 174.978 151.745C135.481 197.728 112.059 244.631 104.711 292.453C99.2 314.525 96.4444 335.677 96.4444 355.91C96.4444 374.303 99.2 391.777 104.711 408.331C145.126 364.187 198.4 342.115 264.533 342.115C328.83 342.115 381.185 360.968 421.6 398.674C462.015 436.381 482.222 488.342 482.222 554.558C482.222 617.095 461.096 668.136 418.844 707.682ZM986.622 707.682C944.37 747.227 890.178 767 824.044 767C734.03 767 668.815 734.812 628.4 670.435C610.03 642.845 595.333 608.818 584.311 568.353C573.289 527.887 567.778 485.583 567.778 441.439C567.778 345.794 592.119 259.345 640.8 182.094C689.481 104.842 761.585 44.1439 857.111 0L881.911 49.6619C828.637 71.7338 782.252 105.761 742.756 151.745C703.259 197.728 679.837 244.631 672.489 292.453C666.978 314.525 664.222 335.677 664.222 355.91C664.222 374.303 666.978 391.777 672.489 408.331C712.904 364.187 766.178 342.115 832.311 342.115C896.607 342.115 948.963 360.968 989.378 398.674C1029.79 436.381 1050 488.342 1050 554.558C1050 617.095 1028.87 668.136 986.622 707.682Z" fill="#1E2333"/>
</svg>
