<svg width="24" height="24" viewBox="0 0 24 24" fill="none" xmlns="http://www.w3.org/2000/svg">
<path fill-rule="evenodd" clip-rule="evenodd" d="M24 12C24 18.624 18.624 24 12 24C5.376 24 0 18.624 0 12C0 5.376 5.376 0 12 0C18.624 0 24 5.376 24 12ZM21.6 12C21.6 6.696 17.304 2.4 12 2.4C6.696 2.4 2.4 6.696 2.4 12C2.4 17.304 6.696 21.6 12 21.6C17.304 21.6 21.6 17.304 21.6 12ZM18 9C18 8.04 17.16 7.2 16.2 7.2C15.24 7.2 14.4 8.04 14.4 9C14.4 9.96 15.24 10.8 16.2 10.8C17.16 10.8 18 9.96 18 9ZM9.6 9C9.6 9.96 8.76 10.8 7.8 10.8C6.84 10.8 6 9.96 6 9C6 8.04 6.84 7.2 7.8 7.2C8.76 7.2 9.6 8.04 9.6 9ZM17.028 16.572C15.948 15.264 14.1 14.4 12 14.4C9.9 14.4 8.052 15.264 6.972 16.572L8.676 18.276C9.216 17.4 10.5 16.8 12 16.8C13.5 16.8 14.784 17.4 15.324 18.276L17.028 16.572Z" fill="#F76A6A"/>
</svg>
