<svg width="24" height="24" viewBox="0 0 24 24" fill="none" xmlns="http://www.w3.org/2000/svg">
<path fill-rule="evenodd" clip-rule="evenodd" d="M24 12C24 18.624 18.624 24 12 24C5.376 24 0 18.624 0 12C0 5.376 5.376 0 12 0C18.624 0 24 5.376 24 12ZM21.6 12C21.6 6.696 17.304 2.4 12 2.4C6.696 2.4 2.4 6.696 2.4 12C2.4 17.304 6.696 21.6 12 21.6C17.304 21.6 21.6 17.304 21.6 12ZM7.8 10.8C8.76 10.8 9.6 9.96 9.6 9C9.6 8.04 8.76 7.2 7.8 7.2C6.84 7.2 6 8.04 6 9C6 9.96 6.84 10.8 7.8 10.8ZM18 9C18 9.96 17.16 10.8 16.2 10.8C15.24 10.8 14.4 9.96 14.4 9C14.4 8.04 15.24 7.2 16.2 7.2C17.16 7.2 18 8.04 18 9ZM6.972 16.104C8.052 17.4 9.9 18.276 12 18.276C14.1 18.276 15.948 17.4 17.028 16.104L15.324 14.4C14.784 15.264 13.5 15.876 12 15.876C10.5 15.876 9.216 15.264 8.676 14.4L6.972 16.104Z" fill="#00A49B"/>
</svg>
