<svg width="56" height="56" viewBox="0 0 56 56" fill="none" xmlns="http://www.w3.org/2000/svg">
<path d="M28.4375 56C43.6598 56 56 43.6599 56 28.4375C56 13.2151 43.6598 0.875 28.4375 0.875C13.2152 0.875 0.875 13.2151 0.875 28.4375C0.875 43.6599 13.2152 56 28.4375 56Z" fill="white"/>
<path d="M30.5582 19.2691C30.431 19.1984 30.1614 19.33 29.9567 19.5598C29.752 19.7895 29.6884 20.035 29.8155 20.1057C29.9425 20.1764 30.2122 20.0468 30.4184 19.815C30.6245 19.5833 30.6866 19.3378 30.5582 19.2691Z" fill="#007B72"/>
<path fill-rule="evenodd" clip-rule="evenodd" d="M30.7936 14.0275C29.4941 13.782 28.7764 15.258 28.8859 15.4518C28.9997 15.658 29.513 15.6123 30.0985 15.5601C30.728 15.5039 31.441 15.4404 31.8306 15.6747C32.5822 16.1268 32.8164 14.4118 30.7936 14.0275ZM30.0117 15.145C29.9776 15.2726 29.7227 15.2936 29.6074 15.2516C29.3544 15.1628 29.5186 14.9641 29.7151 14.8333C29.7755 14.7929 30.04 14.7413 30.0136 14.9044C30.0048 14.9605 30.0087 15.0225 30.0117 15.0704C30.0139 15.1053 30.0156 15.1327 30.0117 15.145ZM31.7842 15.2681C31.8049 15.2504 31.8212 15.2295 31.8324 15.2063C31.8607 15.1521 31.8644 15.0909 31.8428 15.0344C31.8211 14.978 31.7757 14.9304 31.7153 14.9012C31.5982 14.8575 31.4792 14.8204 31.3564 14.7848C31.3621 14.8534 31.3576 14.9223 31.3432 14.99C31.3412 15.0062 31.3386 15.0225 31.3359 15.0388C31.3228 15.1178 31.3102 15.1944 31.3886 15.2467C31.4346 15.2751 31.4865 15.296 31.5415 15.3081C31.5684 15.3179 31.5973 15.323 31.6266 15.3232C31.6558 15.3234 31.6848 15.3186 31.7118 15.3091C31.7389 15.2997 31.7634 15.2858 31.7842 15.2681Z" fill="#007B72"/>
<path fill-rule="evenodd" clip-rule="evenodd" d="M28.0001 3.5C23.1545 3.5 18.4176 4.9369 14.3886 7.629C10.3596 10.3211 7.21932 14.1475 5.36497 18.6242C3.51061 23.1011 3.02544 28.0271 3.97077 32.7797C4.91617 37.5322 7.24951 41.8977 10.6759 45.3241C14.1024 48.7505 18.4679 51.0839 23.2204 52.0293C27.973 52.9745 32.8991 52.4894 37.3759 50.6351C41.8528 48.7806 45.6792 45.6405 48.3712 41.6115C51.0632 37.5825 52.5 32.8456 52.5 28C52.5 21.5022 49.919 15.2706 45.3243 10.6759C40.7297 6.08124 34.498 3.5 28.0001 3.5ZM45.6022 14.0855C49.8794 20.8402 48.4704 29.0594 46.3336 33.3367C46.5548 25.8133 44.1813 24.5037 41.9944 23.2971C40.638 22.5488 39.3534 21.84 38.8044 19.7126C38.2371 17.5132 38.4791 15.2999 38.6851 13.416C38.897 11.478 39.0708 9.88851 38.2863 9.02133C37.7772 8.45842 43.5496 10.8391 45.6022 14.0855ZM39.8642 27.0603C39.1357 27.008 38.3584 26.9522 37.347 26.3454C36.4507 25.8076 35.6386 24.1243 36.4507 20.7882C35.6315 22.5809 35.4486 23.9952 35.5544 25.2698C35.6395 26.0157 35.9982 26.7035 36.5612 27.2002C37.124 27.6969 37.8512 27.9672 38.6019 27.9588C41.8931 27.9588 42.5062 28.6283 44.0285 30.2909L44.1913 30.4685C44.012 30.1099 43.0118 28.3173 41.8609 27.6002C41.1436 27.1522 40.5239 27.1077 39.8642 27.0603ZM40.9323 26.1661C40.564 26.053 40.1881 25.9967 39.8205 25.9417C38.7263 25.778 37.7045 25.6251 37.1678 24.0149C36.3861 21.6684 37.5586 17.3822 37.7056 17.09C37.7083 17.2652 37.7041 17.462 37.6994 17.6764V17.6766V17.6767V17.6769V17.6771V17.6772V17.6774V17.6776C37.6587 19.577 37.5883 22.8591 42.0348 24.7321C45.4408 26.1661 45.4408 31.1855 45.4408 31.1855C44.5409 29.0344 43.2628 26.8832 40.9323 26.1661ZM32.4141 11.8857L32.4142 11.8857L32.4142 11.8857C32.6415 11.9596 32.8336 12.022 32.9173 12.0778C33.2364 12.2893 32.7453 12.6657 32.7434 12.6622C27.6008 11.3374 27.7275 14.4366 27.7677 15.4195C27.7736 15.5618 27.7776 15.6597 27.7635 15.6935C27.6737 15.9093 27.4645 16.1111 27.2807 16.2884L27.2807 16.2884L27.2806 16.2884C27.237 16.3306 27.1947 16.3713 27.1558 16.4106C27.0227 16.5437 26.8791 16.6572 26.7363 16.7699C26.514 16.9456 26.2936 17.1197 26.1179 17.3643C25.84 17.7633 25.6394 18.2108 25.5263 18.6837C25.3849 19.3333 25.2908 19.9923 25.2449 20.6556C25.2247 20.8457 25.2028 21.0358 25.1809 21.226C25.1288 21.6779 25.0766 22.1302 25.0476 22.5844C24.9437 24.2964 24.8719 26.1249 25.2914 27.8028C25.4242 28.3173 25.6392 29.0469 26.1878 29.2638C28.0972 30.0159 29.5896 27.972 30.2984 27.0012C30.3768 26.8938 30.4457 26.7995 30.5044 26.7236C30.7961 26.3469 31.2942 26.2647 31.7015 26.1975C32.118 26.1288 32.4397 26.0757 32.3491 25.7395C32.2474 25.3749 31.6291 25.3021 31.2698 25.2599L31.2698 25.2598C31.2298 25.2551 31.1931 25.2508 31.1606 25.2465C31.004 25.2261 30.8429 25.2188 30.6811 25.2114C30.3446 25.1961 30.0052 25.1807 29.6978 25.0475C29.5852 25.0051 29.4878 24.9305 29.4176 24.8329C29.3475 24.7353 29.3077 24.6191 29.3034 24.4989C29.3049 24.3331 29.3199 24.1676 29.3482 24.0042C31.1122 24.7733 32.1053 24.0777 32.3384 23.7514C32.5606 23.4403 32.2383 23.1683 32.0711 23.0271L32.0479 23.0075C31.9499 22.924 31.6734 22.992 31.4152 23.0555C31.2579 23.0942 31.1073 23.1312 31.0082 23.1312C30.8092 23.1331 30.6452 23.0337 30.4837 22.9357C30.3483 22.8536 30.2146 22.7725 30.0635 22.7529C29.7165 22.7087 29.4003 22.8839 29.1048 23.0476C29.0293 23.0895 28.9551 23.1306 28.8821 23.167L28.8543 23.1821L28.8032 23.2103L28.8031 23.2104L28.8031 23.2104L28.803 23.2104C28.5573 23.3461 28.1076 23.5944 27.8836 23.5256C27.3899 23.3737 28.0057 23.0377 28.3012 22.8765L28.3012 22.8765L28.3013 22.8764C28.3545 22.8474 28.3973 22.8241 28.4214 22.8085C28.7722 22.5769 29.0999 22.3122 29.4002 22.0179C29.4757 21.9445 29.5491 21.8601 29.6239 21.7741C29.8102 21.5598 30.0048 21.3359 30.2607 21.249C30.3735 21.2122 30.7356 21.3641 30.9593 21.4581C31.0626 21.5014 31.1365 21.5324 31.1427 21.5268C31.3812 21.2923 31.6622 21.2891 31.8906 21.2866C32.0708 21.2845 32.2184 21.2829 32.2864 21.1682C32.3509 21.0595 32.2086 20.5665 32.0404 19.9833L32.0404 19.9833C31.8064 19.1723 31.5221 18.1869 31.6733 17.8178C31.9332 17.1832 35.1797 13.3362 35.1797 13.3362C35.4438 13.0199 36.2552 13.2093 36.923 13.3651C37.4245 13.4822 37.8451 13.5803 37.892 13.4312C38.0013 13.0834 37.2036 11.7264 37.062 11.6798C37.015 11.6643 36.8849 11.6581 36.7158 11.6501C36.3753 11.6339 35.8765 11.6102 35.5795 11.488C35.3528 11.3948 35.1052 10.9125 34.863 10.4407C34.6301 9.98707 34.4022 9.5432 34.2027 9.46414C33.7958 9.30282 31.8472 10.2368 31.286 10.8982C30.873 11.3851 31.7801 11.6798 32.4141 11.8857ZM33.6721 32.2073C33.6721 32.3561 29.5687 34.907 28.7746 34.4033C27.9804 33.8996 26.8027 31.8021 26.7363 30.8269C26.7355 30.8211 26.7355 30.815 26.7363 30.8091C26.7459 30.8063 26.8766 30.8115 27.0822 30.8198H27.0822C27.8037 30.8487 29.4473 30.9145 30.0151 30.8001C30.4619 30.859 30.7709 31.1004 31.1211 31.3739L31.1211 31.374C31.2823 31.4998 31.4521 31.6325 31.6482 31.7574C31.9003 31.919 32.3332 31.9178 32.7341 31.9166C33.2224 31.9152 33.6632 31.914 33.6721 32.2073ZM29.3949 8.4245L29.395 8.42448L29.3951 8.42437L29.3951 8.42433C29.6362 8.20579 29.847 8.01469 30.0204 7.83644C28.563 8.18418 25.399 9.30994 23.2209 13.2233C20.3563 18.3663 21.7635 23.7837 23.0704 25.8506C22.6419 24.1458 22.2457 20.5587 24.4345 15.4891C26.2563 11.2699 28.1984 9.50924 29.3949 8.4245ZM17.2963 15.4999C17.9864 10.0539 21.0608 7.3345 22.5702 6.26965C22.4451 6.57361 22.2766 6.90692 22.0835 7.289L22.0835 7.28904C21.2081 9.02058 19.8265 11.7537 19.684 17.2962C19.5101 24.0616 21.6309 28.1846 22.8929 29.9289C20.4638 28.1811 16.3892 22.6705 17.2963 15.4999ZM14.594 11.5401L14.594 11.54C14.6348 11.2799 14.6732 11.0351 14.7041 10.8032C13.598 12.6783 11.2945 16.6992 13.1893 22.536C15.4247 29.3857 20.7184 32.4243 23.9452 33.4138C23.8729 33.3528 23.7981 33.29 23.7209 33.2252L23.7168 33.2217L23.7164 33.2214C21.7142 31.54 18.1264 28.5272 15.7617 22.1058C13.7814 16.7245 14.2659 13.6336 14.594 11.5401ZM9.32612 17.6242L9.32692 17.6274C9.02136 18.5728 8.24644 24.9279 12.4847 30.0472C17.4612 36.0615 26.385 36.2013 26.5642 35.6367C26.6053 35.512 26.2337 35.4441 25.5731 35.3235C23.5835 34.9601 18.9725 34.1179 15.1182 29.8034C10.9844 25.183 10.0361 20.8434 9.51173 18.4439C9.44518 18.1394 9.38545 17.8661 9.32692 17.6274L9.32796 17.6242H9.32612ZM42.8665 43.0618C44.4334 41.6707 45.8764 39.9874 46.3228 37.9402C46.413 37.5094 46.4551 37.0699 46.4483 36.6297C46.4468 36.4003 46.4318 36.171 46.4035 35.9431C46.3228 34.6005 45.5717 33.1162 44.5176 32.1159C43.7359 31.391 42.784 30.8751 41.7499 30.6159C40.7158 30.3568 39.633 30.3628 38.6019 30.6334C37.0322 31.0634 35.731 32.0698 34.4293 33.0765C33.9293 33.4633 33.4292 33.8501 32.9138 34.2043C28.6419 37.1353 22.9897 37.838 18.0653 36.2479C17.6817 36.1237 17.3016 35.9856 16.9252 35.8338C14.7178 34.9348 12.7021 33.6231 10.9861 31.9689C9.22673 30.2771 8.08868 28.3487 6.86785 26.2801L6.83971 26.2325C5.27474 37.1066 14.5696 40.5126 19.0781 40.5126C27.4278 40.5126 31.7658 37.557 34.8756 35.4382C36.5062 34.3272 37.7992 33.4463 39.1558 33.3421C41.1224 33.1986 42.5762 33.3062 43.9529 34.4176C42.8137 34.0354 41.6034 33.9129 40.4107 34.0591C38.3191 34.2797 36.9348 35.2194 35.4461 36.2299C35.1931 36.4017 34.9372 36.5754 34.6742 36.7481C32.0318 38.4888 29.7121 39.7795 27.3243 40.5789L27.2509 40.604C21.6416 42.5652 15.1881 42.1045 9.97504 39.2255C11.601 41.6097 13.374 44.1068 16.0414 45.195C17.3949 45.7453 18.8827 45.8852 20.3438 45.8654C25.3015 45.7808 30.0732 43.9638 33.8316 40.7295C30.2679 45.428 23.8896 47.8033 18.1191 46.5789C19.5579 47.7237 21.2435 48.5177 23.0425 48.8979C24.8414 49.2782 26.7042 49.2343 28.4832 48.7696C30.2622 48.305 31.9085 47.4324 33.2918 46.2211C34.6751 45.0098 35.7572 43.4929 36.4524 41.7908C35.397 44.6784 33.4914 47.1784 30.9867 48.9613C35.3988 48.0802 39.4982 46.0445 42.8665 43.0618Z" fill="#045CD7"/>
<path fill-rule="evenodd" clip-rule="evenodd" d="M36.6463 1.36844C43.0897 3.46039 48.5561 7.8174 52.0323 13.6319C54.6307 17.9757 56.0022 22.9431 56 28.0049C55.9989 34.7793 53.5416 41.3236 49.0838 46.4247C44.626 51.5257 38.47 54.8377 31.7569 55.7468C25.0437 56.6557 18.2286 55.0999 12.5749 51.3679C6.92107 47.6359 2.81209 41.9807 1.00947 35.4505C-0.79313 28.9202 -0.167102 21.958 2.77152 15.8541C5.71017 9.75022 10.7621 4.91869 16.9908 2.25511C23.2197 -0.408477 30.203 -0.723498 36.6463 1.36844ZM13.5922 49.679C17.8712 52.5362 22.9013 54.0604 28.0464 54.0586H28.0375C34.9365 54.0586 41.5529 51.3179 46.4312 46.4397C51.3096 41.5614 54.0501 34.945 54.0501 28.046C54.0501 22.9008 52.5241 17.8712 49.6656 13.5933C46.8069 9.31533 42.7438 5.98119 37.9901 4.01263C33.2363 2.04407 28.0056 1.52945 22.9595 2.53388C17.9132 3.53831 13.2782 6.01668 9.64067 9.65549C6.00314 13.2943 3.52637 17.9301 2.52367 22.9767C1.52097 28.0232 2.03742 33.2538 4.00762 38.0067C5.97783 42.7598 9.31333 46.8218 13.5922 49.679Z" fill="#045CD7"/>
</svg>
