<?xml version="1.0" encoding="utf-8"?>
<!-- Generator: Adobe Illustrator 24.0.0, SVG Export Plug-In . SVG Version: 6.00 Build 0)  -->
<svg version="1.1" id="Слой_1" xmlns="http://www.w3.org/2000/svg" xmlns:xlink="http://www.w3.org/1999/xlink" x="0px" y="0px"
	 viewBox="0 0 491.3 329.2" style="enable-background:new 0 0 491.3 329.2;" xml:space="preserve">
<style type="text/css">
	.st0{fill:#1D1D1B;}
</style>
<g>
	<g>
		<g>
			<g>
				<path class="st0" d="M80.6,198.8l13-21.5c0.5-0.8,0.8-1.6,0.8-2.3c0-0.5-0.5-1.1-1.6-1.7c-1.1-0.6-1.6-1.3-1.6-2v-2
					c0-0.9,0.5-1.4,1.6-1.4h18.6c1.3,0,2,0.5,2,1.4v2c0,0.6-0.2,1.1-0.5,1.3s-1.1,0.6-2.2,1.1c-4.4,1.6-7.6,4.2-9.6,7.5l-9.8,15.9
					l15.8,37.3c1.2,2.8,3.2,5,6.1,6.7c1.4,0.8,2.1,1.7,2.1,2.6v1.7c0,1-0.7,1.5-2,1.5H92.3c-1.3,0-2-0.5-2-1.5v-1.6
					c0-0.9,0.4-1.6,1.3-2.2c1.6-1,2.4-1.8,2.4-2.5c0-0.5-0.1-1-0.4-1.6l-13-30.1v30c0,1.7,0.8,3,2.4,3.9c1.1,0.6,1.6,1.3,1.6,2v2.3
					c0,0.8-0.5,1.2-1.6,1.2H63.3c-0.9,0-1.4-0.4-1.4-1.1v-2.4c0-0.8,0.5-1.4,1.6-2c1.6-0.9,2.4-2.2,2.4-3.9v-60.2
					c0-1.7-0.8-3-2.4-3.9c-1.1-0.6-1.6-1.3-1.6-2.1v-2.2c0-0.8,0.5-1.2,1.6-1.2h19.7c0.9,0,1.4,0.4,1.4,1.1v2.3
					c0,0.8-0.5,1.5-1.6,2.1c-1.6,0.9-2.4,2.2-2.4,3.9V198.8z"/>
				<path class="st0" d="M139.7,210.2v27.3c0,1.8,0.8,3.1,2.4,3.9c1.1,0.6,1.6,1.2,1.6,2v2.3c0,0.8-0.5,1.2-1.6,1.2h-19.7
					c-0.9,0-1.4-0.4-1.4-1.1v-2.4c0-0.7,0.5-1.4,1.6-2c1.6-0.9,2.4-2.2,2.4-3.9v-60.2c0-1.7-0.8-3-2.4-3.9c-1.1-0.6-1.6-1.3-1.6-2.1
					v-2.2c0-0.8,0.5-1.2,1.6-1.2h16.5c9.3,0,16.4,1.7,21.3,5c4.9,3.4,7.3,8.2,7.3,14.6c0,10.5-5.9,17.2-17.6,20.1
					c3.4,1.3,6.1,2.9,7.9,4.6c1.8,1.7,3.2,4.2,4.1,7.5l4.6,16c0.6,2.1,1.2,3.4,1.7,4.2c0.6,0.7,1.5,1.4,2.8,2c0.4,0.2,0.6,0.5,0.6,1
					v2.9c0,0.7-0.5,1.1-1.4,1.1h-12.6c-1.2,0-2-0.5-2.3-1.6l-8.6-27.7c-0.9-3.1-1.9-5-3.1-6C142.9,210.7,141.4,210.2,139.7,210.2z
					 M139.7,174.1v30.1c4.5,0,7.9-1.1,10-3.4c2.1-2.3,3.2-6.5,3.2-12.7c0-5.7-1.1-9.5-3.2-11.3C147.5,175,144.2,174.1,139.7,174.1z"
					/>
				<path class="st0" d="M222.8,246.9h-43.2c-1,0-1.5-0.4-1.5-1.2v-2.2c0-0.7,0.7-1.5,2.1-2.3c1.2-0.8,1.8-2,1.8-3.6v-60.2
					c0-1.7-0.8-3.1-2.3-3.9c-1.1-0.6-1.6-1.2-1.6-2v-2.4c0-0.6,0.5-1,1.5-1h32.4c0.6,0,1.7-0.1,3.3-0.2c1.5-0.1,2.4-0.2,2.8-0.2
					c1.4,0,2.1,0.3,2.1,0.9v14.8c0,0.8-0.1,1.2-0.3,1.4c-0.2,0.2-0.7,0.2-1.6,0.2H216c-1,0-1.6-0.5-1.7-1.4
					c-0.5-2.6-1.3-4.9-2.5-6.7c-1.2-1.9-3.6-2.8-7.2-2.8h-7.9v28.6h2.9c1.8,0,3-0.3,3.7-0.8c0.7-0.6,1.5-2.3,2.5-5.2
					c0.3-0.9,0.6-1.5,0.7-1.6c0.1-0.1,0.5-0.2,1.1-0.2h2.8c1.1,0,1.6,0.4,1.6,1.3v19.5c0,0.8-0.5,1.2-1.5,1.2h-2.9
					c-0.6,0-1.1-0.1-1.3-0.4s-0.6-1-1-2.3c-0.8-2.4-1.6-3.8-2.5-4.4c-0.9-0.5-2.1-0.8-3.7-0.8h-2.5v31.9h8.5c3.2,0,5.3-0.6,6.6-1.8
					c1.2-1.2,2.7-4.5,4.5-9.8c0.4-1.2,1.2-1.8,2.3-1.8h2.7c1.1,0,1.6,0.4,1.6,1.3V246.9z"/>
				<path class="st0" d="M232.9,237.5v-60.2c0-1.7-0.8-3-2.4-3.9c-1.1-0.6-1.6-1.3-1.6-2.1v-2.2c0-0.8,0.5-1.2,1.6-1.2h22.8
					l7.1,36.8l7.1-36.8h23c0.9,0,1.4,0.4,1.4,1.1v2.3c0,0.8-0.5,1.5-1.6,2.1c-1.6,0.9-2.4,2.2-2.4,3.9v60.2c0,1.8,0.8,3.1,2.5,3.9
					c1,0.6,1.6,1.2,1.6,2v2.3c0,0.8-0.5,1.2-1.6,1.2h-19c-0.9,0-1.3-0.4-1.3-1.1v-2.4c0-0.7,0.5-1.4,1.6-2c1.6-0.9,2.5-2.2,2.5-3.9
					v-61.7l-13.6,71h-5l-13.4-71v61.7c0,1.8,0.8,3.1,2.4,3.9c1.1,0.6,1.6,1.2,1.6,2v2.3c0,0.8-0.5,1.2-1.6,1.2h-14.1
					c-0.9,0-1.4-0.4-1.4-1.1v-2.4c0-0.7,0.5-1.4,1.6-2C232.1,240.6,232.9,239.2,232.9,237.5z"/>
				<path class="st0" d="M303.3,237.5v-60.2c0-1.7-0.8-3-2.4-3.9c-1.1-0.6-1.6-1.3-1.6-2.1v-2.2c0-0.8,0.5-1.2,1.6-1.2h19.7
					c0.9,0,1.4,0.4,1.4,1.1v2.3c0,0.8-0.5,1.5-1.6,2.1c-1.6,0.9-2.4,2.2-2.4,3.9v63.6h5.4c3.2,0,5.6-0.8,7.3-2.3
					c1.7-1.6,3-4.2,3.9-8c0.3-1.4,0.6-2.3,0.7-2.5c0.1-0.2,0.5-0.3,1.1-0.3h3c1.1,0,1.7,0.4,1.7,1.1v18.1h-40.2
					c-1.4,0-2.1-0.5-2.1-1.5v-1.9c0-0.8,0.6-1.4,1.8-2C302.4,240.6,303.3,239.3,303.3,237.5z"/>
				<path class="st0" d="M367.4,237.5c0,1.8,0.8,3.1,2.4,3.9c1.1,0.6,1.6,1.2,1.6,2v2.3c0,0.8-0.5,1.2-1.6,1.2h-19.7
					c-0.9,0-1.4-0.4-1.4-1.1v-2.4c0-0.7,0.5-1.4,1.6-2c1.6-0.9,2.4-2.2,2.4-3.9v-60.2c0-1.7-0.8-3-2.4-3.9c-1.1-0.6-1.6-1.3-1.6-2.1
					v-2.2c0-0.8,0.5-1.2,1.6-1.2h19.7c0.9,0,1.4,0.4,1.4,1.1v2.3c0,0.8-0.5,1.5-1.6,2.1c-1.6,0.9-2.4,2.2-2.4,3.9V237.5z"/>
				<path class="st0" d="M416.1,210.3v-33c0-1.7-0.8-3-2.4-3.9c-1.1-0.6-1.6-1.3-1.6-2.1v-2.2c0-0.8,0.5-1.2,1.6-1.2h14.3
					c0.9,0,1.4,0.4,1.4,1.1v2.3c0,0.8-0.5,1.5-1.6,2.1c-1.6,0.9-2.5,2.2-2.5,3.9v68.4c0,1.1-0.6,1.6-1.8,1.6h-2.8
					c-1.3,0-2.1-0.5-2.6-1.6l-26.1-55.5v47.4c0,1.8,0.8,3.1,2.5,3.9c1.1,0.6,1.6,1.2,1.6,2v2.3c0,0.8-0.5,1.2-1.6,1.2h-14.2
					c-0.9,0-1.4-0.4-1.4-1.1v-2.4c0-0.7,0.5-1.4,1.6-2c1.6-0.9,2.4-2.2,2.4-3.9v-60.2c0-1.7-0.8-3-2.4-3.9c-1.1-0.6-1.6-1.3-1.6-2.1
					v-2.2c0-0.8,0.5-1.2,1.6-1.2h13.4c1,0,1.6,0.1,2,0.3c0.3,0.2,0.7,0.6,1,1.3L416.1,210.3z"/>
			</g>
		</g>
		<g>
			<polygon class="st0" points="245.7,34.6 252.4,48.2 267.4,50.4 256.5,61 259.1,76 245.7,68.9 232.2,76 234.8,61 223.9,50.4 
				238.9,48.2 			"/>
			<path class="st0" d="M245.7,150.7"/>
			<polygon class="st0" points="292.9,126.1 283.6,115.9 283.6,138.1 269.7,138.1 269.7,104.3 259.1,115 251.7,82 245.7,79.3 
				239.6,82 232.2,115 221.6,104.3 221.6,138.1 207.7,138.1 207.7,115.9 198.4,126.1 189.6,115.9 189.6,150.7 245.7,150.7 
				301.7,150.7 301.7,115.9 			"/>
		</g>
		<g>
			<g>
				<path class="st0" d="M165.9,294.1h-1.1c-0.4,0-0.6-0.2-0.6-0.5v-6.8c0-0.5,0.2-0.7,0.6-0.7h1c0.3,0,0.4,0.1,0.5,0.2
					c0.1,0.1,0.2,0.6,0.3,1.4c0.6,3.2,2,4.7,4.2,4.7c1.1,0,2-0.4,2.7-1.2c0.7-0.8,1-1.8,1-2.9c0-1.2-0.3-2.3-1-3.3s-2.1-2.4-4.1-4.1
					c-1.6-1.3-2.7-2.3-3.3-3c-0.7-0.7-1.2-1.5-1.6-2.4c-0.4-0.9-0.6-1.9-0.6-3c0-2,0.6-3.6,1.9-4.9c1.3-1.3,2.8-1.9,4.6-1.9
					c0.8,0,1.7,0.2,2.7,0.6c0.4,0.2,0.7,0.3,0.9,0.3c0.2,0,0.3,0,0.5-0.1c0.2-0.1,0.4-0.1,0.7-0.1h0.8c0.4,0,0.7,0.2,0.7,0.5v6
					c0,0.3-0.2,0.5-0.5,0.5h-1c-0.3,0-0.4-0.1-0.5-0.2c-0.1-0.1-0.2-0.6-0.4-1.3c-0.7-2.6-1.9-3.9-3.5-3.9c-0.9,0-1.5,0.3-2.1,0.9
					c-0.5,0.6-0.8,1.2-0.8,2c0,0.9,0.3,1.8,0.9,2.7s1.8,2.1,3.6,3.6c2.3,1.9,4,3.6,4.8,5.1c0.9,1.5,1.3,3.1,1.3,4.8
					c0,2.3-0.7,4.2-2.2,5.6c-1.5,1.4-3.3,2.2-5.3,2.2c-0.9,0-2-0.2-3.2-0.6c-0.4-0.1-0.7-0.2-0.8-0.2c-0.1,0-0.3,0.1-0.6,0.2
					C166.2,294.1,166.1,294.1,165.9,294.1z"/>
				<path class="st0" d="M206.2,287.3c-0.2,2.2-0.8,4-2.1,5.3c-1.2,1.3-2.8,1.9-4.8,1.9c-2.8,0-5-1.2-6.7-3.7
					c-1.7-2.4-2.5-6-2.5-10.7c0-4.8,0.8-8.4,2.5-10.9c1.6-2.5,3.8-3.8,6.4-3.8c1.1,0,2.3,0.3,3.5,0.9c0.2,0.1,0.3,0.1,0.4,0.1
					c0.1,0,0.3-0.1,0.5-0.2c0.1-0.1,0.2-0.2,0.4-0.2h1.3c0.3,0,0.4,0.2,0.4,0.5v5.9c0,0.3-0.1,0.5-0.4,0.5h-1
					c-0.3,0-0.5-0.1-0.6-0.2c-0.1-0.1-0.3-0.5-0.5-1.1c-0.9-2.8-2.1-4.2-3.6-4.2c-0.9,0-1.6,0.4-2.1,1.1c-0.5,0.7-0.9,2.1-1.1,4.1
					c-0.3,2-0.4,4.1-0.4,6.3c0,4.5,0.3,7.8,0.9,9.9c0.6,2.1,1.7,3.2,3.3,3.2c1.9,0,3.1-1.7,3.7-5L206.2,287.3z"/>
				<path class="st0" d="M233.9,269.2v21.6c0,0.6,0.3,1.1,0.9,1.4c0.4,0.2,0.6,0.4,0.6,0.7v0.8c0,0.3-0.2,0.4-0.6,0.4h-7.1
					c-0.3,0-0.5-0.1-0.5-0.4v-0.8c0-0.3,0.2-0.5,0.6-0.7c0.6-0.3,0.9-0.8,0.9-1.4v-10.5h-5.2v10.5c0,0.6,0.3,1.1,0.9,1.4
					c0.4,0.2,0.6,0.4,0.6,0.7v0.8c0,0.3-0.2,0.4-0.6,0.4h-7.1c-0.3,0-0.5-0.1-0.5-0.4v-0.8c0-0.3,0.2-0.5,0.6-0.7
					c0.6-0.3,0.9-0.8,0.9-1.4v-21.6c0-0.6-0.3-1.1-0.9-1.4c-0.4-0.2-0.6-0.5-0.6-0.7v-0.8c0-0.3,0.2-0.4,0.6-0.4h7.1
					c0.3,0,0.5,0.1,0.5,0.4v0.8c0,0.3-0.2,0.5-0.6,0.7c-0.6,0.3-0.9,0.8-0.9,1.4v8.5h5.2v-8.5c0-0.6-0.3-1.1-0.9-1.4
					c-0.4-0.2-0.6-0.5-0.6-0.7v-0.8c0-0.3,0.2-0.4,0.6-0.4h7.1c0.3,0,0.5,0.1,0.5,0.4v0.8c0,0.3-0.2,0.5-0.6,0.7
					C234.2,268.1,233.9,268.6,233.9,269.2z"/>
				<path class="st0" d="M256.1,294.5c-3.1,0-5.5-1.3-7-3.8c-1.5-2.5-2.3-6-2.3-10.5c0-4.6,0.8-8.2,2.3-10.8s3.8-3.9,6.8-3.9
					c2.8,0,5,1.2,6.6,3.6c1.6,2.4,2.5,6.1,2.5,10.9c0,4.8-0.8,8.5-2.4,10.9C260.9,293.3,258.7,294.5,256.1,294.5z M255.8,292.6
					c0.7,0,1.3-0.3,1.9-1c0.6-0.7,1-2.6,1.2-5.8c0.2-3.1,0.4-6.1,0.4-8.8c0-2.4-0.2-4.3-0.5-5.8c-0.4-1.5-0.8-2.5-1.2-2.9
					c-0.4-0.4-1-0.7-1.6-0.7c-0.6,0-1.1,0.2-1.5,0.5c-0.4,0.3-0.8,0.9-1,1.8c-0.2,0.9-0.5,2.6-0.7,5.1c-0.2,2.5-0.3,5.2-0.3,8.1
					c0,3.4,0.3,5.8,0.8,7.3C253.8,291.8,254.7,292.6,255.8,292.6z"/>
				<path class="st0" d="M286.3,294.5c-3.1,0-5.5-1.3-7-3.8c-1.5-2.5-2.3-6-2.3-10.5c0-4.6,0.8-8.2,2.3-10.8s3.8-3.9,6.8-3.9
					c2.8,0,5,1.2,6.6,3.6c1.6,2.4,2.5,6.1,2.5,10.9c0,4.8-0.8,8.5-2.4,10.9C291.1,293.3,289,294.5,286.3,294.5z M286,292.6
					c0.7,0,1.3-0.3,1.9-1c0.6-0.7,1-2.6,1.2-5.8c0.2-3.1,0.4-6.1,0.4-8.8c0-2.4-0.2-4.3-0.5-5.8c-0.4-1.5-0.8-2.5-1.2-2.9
					c-0.4-0.4-1-0.7-1.6-0.7c-0.6,0-1.1,0.2-1.5,0.5c-0.4,0.3-0.8,0.9-1,1.8c-0.2,0.9-0.5,2.6-0.7,5.1c-0.2,2.5-0.3,5.2-0.3,8.1
					c0,3.4,0.3,5.8,0.8,7.3C284,291.8,284.9,292.6,286,292.6z"/>
				<path class="st0" d="M307.9,290.8v-21.6c0-0.6-0.3-1.1-0.9-1.4c-0.4-0.2-0.6-0.5-0.6-0.7v-0.8c0-0.3,0.2-0.4,0.6-0.4h7.1
					c0.3,0,0.5,0.1,0.5,0.4v0.8c0,0.3-0.2,0.5-0.6,0.7c-0.6,0.3-0.9,0.8-0.9,1.4V292h1.9c1.1,0,2-0.3,2.6-0.8s1.1-1.5,1.4-2.9
					c0.1-0.5,0.2-0.8,0.3-0.9c0.1-0.1,0.2-0.1,0.4-0.1h1.1c0.4,0,0.6,0.1,0.6,0.4v6.5h-14.4c-0.5,0-0.7-0.2-0.7-0.5v-0.7
					c0-0.3,0.2-0.5,0.7-0.7C307.6,291.9,307.9,291.4,307.9,290.8z"/>
			</g>
		</g>
	</g>
</g>
</svg>
