<svg width="72" height="18" viewBox="0 0 72 18" fill="none" xmlns="http://www.w3.org/2000/svg">
<path fill-rule="evenodd" clip-rule="evenodd" d="M39 5.08981C39.17 5.25981 40.7 9.30981 40.86 9.80981C41.0193 10.3455 41.2444 10.8594 41.53 11.3398C42.06 11.4598 42.11 10.9298 42.27 10.5098C43.14 8.23981 44.46 4.92981 45.12 2.69981C45.58 1.61981 45.62 1.32981 44.79 1.32981C43.96 1.32981 44.05 1.86981 43.72 2.56981C43.43 3.89981 42.31 6.70981 41.9 7.99981C41.9 8.16981 41.9 8.16981 41.69 8.16981C41 6.24981 40.2 3.89981 39.42 1.99981C39.21 1.62981 38.84 1.54981 38.59 2.37981C38.17 3.69981 37.59 5.26981 37.14 6.54981C37.14 6.54981 36.6 8.16981 36.56 8.24981C36.274 7.78999 36.0646 7.28677 35.94 6.75981C35.32 5.22981 34.78 3.57981 34.25 2.04981C34.12 1.75981 34.12 1.58981 33.83 1.41981C33.5393 1.31209 33.225 1.28446 32.92 1.33981C32.1 1.46981 32.63 2.12981 32.8 2.61981C33.8 5.30981 34.91 8.53981 36.02 11.0998C36.0729 11.2289 36.1907 11.3199 36.329 11.3385C36.4673 11.3571 36.6049 11.3004 36.69 11.1898C36.85 10.8798 38.88 5.08981 39 5.08981Z" fill="white"/>
<path fill-rule="evenodd" clip-rule="evenodd" d="M1.15999 1.50002C1.11865 1.66661 1.13269 1.84212 1.19999 2.00002C1.36999 2.70002 0.86999 10.68 0.99999 11C1.40476 11.182 1.85859 11.2243 2.28999 11.12C2.48999 10.91 2.40999 10.71 2.40999 10.38C2.40999 8.97002 2.52999 7.61002 2.52999 6.16002C2.57999 5.62002 2.61999 5.25002 2.61999 4.92002C2.61999 4.59002 2.61999 4.63002 2.69999 4.55002C2.77999 4.47002 4.08999 6.75002 4.21999 7.00002C4.46999 7.49002 4.95999 8.24002 5.28999 8.82002C5.78999 9.73002 6.03999 9.11002 6.15999 8.90002C6.44999 8.53002 8.68999 4.60002 8.84999 4.52002C8.99999 4.68002 8.99999 8.61002 8.99999 8.90002C8.99999 11.05 8.74999 11.26 10.11 11.17C10.53 11.17 10.57 10.84 10.53 10.47C10.53 9.77002 10.53 8.98002 10.53 8.28002C10.42 6.50002 10.34 4.47002 10.34 2.70002C10.34 2.49002 10.42 1.70002 10.42 1.58002C10.1678 1.29582 9.75194 1.22512 9.41999 1.41002C9.12999 1.58002 9.04999 1.95002 8.83999 2.20002C7.99999 3.69002 6.86999 5.38002 6.07999 6.79002C5.78999 7.29002 5.78999 7.12002 5.53999 6.79002C4.99999 6.00002 4.29999 4.64002 3.80999 3.85002L2.80999 2.20002C2.67099 1.91328 2.4926 1.64738 2.27999 1.41002C1.99999 1.21002 1.44999 1.37002 1.15999 1.50002Z" fill="white"/>
<path fill-rule="evenodd" clip-rule="evenodd" d="M53.93 6.12965C54.6489 5.54309 55.6137 5.35539 56.5 5.62965C57.82 6.20965 57.99 8.15965 57.41 9.10965C56.9037 9.86841 55.9738 10.2251 55.09 9.99965C54.6722 9.91719 54.2768 9.74675 53.93 9.49965V6.12965ZM53.93 4.71965C53.8676 3.63054 53.8676 2.53875 53.93 1.44965C53.93 0.999646 53.77 0.919646 53.35 1.07965C52.35 1.49965 52.35 1.32965 52.49 2.23965C52.57 2.69965 52.49 8.02965 52.49 8.77965C52.49 10.2596 52.28 10.5996 54.43 11.2196C55.667 11.4791 56.9564 11.2227 58 10.5096C60.11 8.77965 59.53 3.89965 55.68 4.26965C55.3444 4.28781 55.0104 4.32789 54.68 4.38965C54.55 4.42965 54.06 4.71965 54 4.71965H53.93Z" fill="white"/>
<path fill-rule="evenodd" clip-rule="evenodd" d="M24.77 11.0898C24.9264 10.5683 24.9707 10.0196 24.9 9.47981C24.859 8.91388 24.859 8.34573 24.9 7.77981C25.02 7.77981 25.15 7.98981 25.4 8.23981C25.65 8.48981 27.71 10.6398 28.04 10.8798C28.2735 11.0971 28.5967 11.19 28.91 11.1298C29.2 11.1298 29.66 11.1298 29.82 10.9298C29.82 10.6398 29.24 10.1798 28.99 9.92981C28.74 9.67981 28.42 9.35981 28.13 9.01981C27.4939 8.46003 26.899 7.85513 26.35 7.20981C26.35 7.11981 28.62 5.20981 29.04 4.84981C29.2 4.67981 29.37 4.63981 29.33 4.38981C28.8153 4.23103 28.2647 4.23103 27.75 4.38981C27.55 4.47981 26.18 5.71981 25.81 6.04981C25.69 6.16981 24.98 6.91981 24.9 6.87981C24.78 6.49981 24.9 1.32981 24.82 1.03981C24.74 0.749807 23.33 1.20981 23.37 1.70981C23.4484 2.06111 23.4886 2.41986 23.49 2.77981V9.92981C23.49 10.1798 23.41 10.9298 23.58 11.0498C23.9691 11.1492 24.3751 11.1629 24.77 11.0898Z" fill="white"/>
<path fill-rule="evenodd" clip-rule="evenodd" d="M14 7.69958C14.46 7.57958 16 7.94958 16.07 8.35958C16.11 8.80201 16.11 9.24715 16.07 9.68958C15.78 10.0596 13.79 10.7996 13.13 9.47958C12.9499 9.09986 12.9499 8.65931 13.13 8.27958C13.3242 7.97121 13.6407 7.76025 14 7.69958ZM16.11 7.19958C15.7214 6.94216 15.2868 6.7622 14.83 6.66958C14.2607 6.60655 13.6848 6.6472 13.13 6.78958C12.1711 7.06423 11.5038 7.93269 11.4854 8.93C11.467 9.92732 12.1018 10.8198 13.05 11.1296C13.841 11.3993 14.699 11.3993 15.49 11.1296C15.66 11.0496 15.99 10.8396 16.11 10.7996C16.23 10.7596 16.28 11.0896 16.44 11.1696C16.6 11.2496 17.35 11.1696 17.56 10.9696C17.77 10.7696 17.81 10.7996 17.68 10.5096C17.4865 10.1269 17.4166 9.69365 17.48 9.26958V6.28958C17.5323 5.86763 17.4292 5.44107 17.19 5.08958C16.4 3.51958 11.64 4.13958 12.02 5.46958C12.4 6.79958 13.02 5.00958 15.12 5.25958C16.25 5.37958 16.13 6.45958 16.13 7.19958H16.11Z" fill="white"/>
<path fill-rule="evenodd" clip-rule="evenodd" d="M65.06 6.99989H61.63C61.676 6.58929 61.8633 6.20747 62.16 5.91989C62.4838 5.63591 62.8907 5.46406 63.32 5.42989C63.7718 5.39256 64.2195 5.54056 64.56 5.83989C64.9042 6.1231 65.0905 6.55516 65.06 6.99989ZM61.54 8.06989C61.79 7.94989 65.54 8.06989 66.22 8.06989C66.9 8.06989 66.59 5.83989 65.35 4.92989C64.3161 4.15911 62.9316 4.0502 61.79 4.64984C60.6483 5.24949 59.9522 6.45121 60 7.73989C59.9516 8.98937 60.593 10.1646 61.67 10.7999C62.78 11.5499 65.76 11.5099 66.13 10.3499C66.59 8.85989 65.51 9.68989 65.13 9.84989C64.8104 9.98089 64.4736 10.0651 64.13 10.0999C61.92 10.3499 61.38 8.39989 61.54 8.06989Z" fill="white"/>
<path fill-rule="evenodd" clip-rule="evenodd" d="M46.53 6.99958C46.6027 6.11407 47.3415 5.4318 48.23 5.42958C49.09 5.33958 50.09 6.08958 49.92 6.99958H46.53ZM46.36 7.99958C46.57 7.99958 50.46 7.99958 51 7.99958C51.54 7.99958 51.45 7.66958 51.41 7.25958C51.3506 6.13003 50.701 5.11512 49.7002 4.58805C48.6994 4.06099 47.495 4.09956 46.53 4.68958C45.4425 5.33205 44.8056 6.52869 44.88 7.78958C44.7933 9.03744 45.4578 10.2171 46.57 10.7896C47.98 11.6596 50.75 11.2896 51 10.2996C51 10.0096 51.2 9.29958 50.75 9.46958C50.2064 9.77688 49.6147 9.98989 49 10.0996C48.3381 10.188 47.6683 10.008 47.14 9.59958C46.78 9.30958 46.2 8.43958 46.36 7.99958Z" fill="white"/>
<path fill-rule="evenodd" clip-rule="evenodd" d="M68.82 11.13C69.07 10.88 69.03 10.76 69.03 10.39V9.39002C69.03 8.07002 68.78 5.88002 70.31 5.55002C70.64 5.47002 70.72 5.75002 71.14 5.67002C71.3877 5.44781 71.5737 5.16533 71.68 4.85002C71.68 4.22002 70.68 4.10002 69.77 4.51002C69.48 4.64002 69.24 5.09002 69.03 5.13002C69.03 4.76002 69.11 4.60002 68.86 4.27002C68.5394 4.30076 68.2292 4.39963 67.95 4.56002C67.54 4.76002 67.46 4.76002 67.54 5.26002C67.62 5.76002 67.54 9.19002 67.54 10.01C67.58 11.26 67.58 11.22 68.82 11.13Z" fill="white"/>
<path fill-rule="evenodd" clip-rule="evenodd" d="M20.06 11.0897V11.0097C20.1761 9.99408 20.2062 8.97044 20.15 7.94973C20.15 7.15973 20.35 5.87973 21.22 5.62973C21.92 5.37973 21.96 6.03973 22.42 5.62973C23.49 4.50973 22.05 4.05973 21.18 4.42973C20.31 4.79973 20.43 5.08973 20.18 5.16973C20.1599 5.00701 20.1599 4.84244 20.18 4.67973C20.18 4.46973 20.09 4.46973 20.01 4.34973C19.6893 4.34712 19.3743 4.43367 19.1 4.59973C18.69 4.75973 18.56 4.79973 18.69 5.29973C18.7779 6.06638 18.8047 6.83882 18.77 7.60973V9.88973C18.86 11.1297 18.69 11.2197 20.06 11.0897Z" fill="white"/>
<path fill-rule="evenodd" clip-rule="evenodd" d="M38.71 12.4199C37.0592 12.6235 35.436 13.0092 33.87 13.5699C33.38 13.7799 32.87 13.8999 32.38 14.1099C31.38 14.4799 30.44 14.8099 29.45 15.1899C29.12 15.3099 26.76 16.0099 26.35 16.0999C24.35 16.5899 21.35 17.1699 19.44 16.2999C18.53 15.8499 18.44 17.2499 20.51 17.7499C21.7205 17.9619 22.9627 17.9073 24.15 17.5899C25.15 17.3799 26.35 17.0099 27.3 16.7199C28.25 16.4299 29.37 16.0999 30.4 15.8099C30.65 15.7199 30.85 15.6399 31.14 15.5599L32.67 15.0999C32.96 15.0199 33.17 14.8999 33.42 14.8099L35 14.4399C35.29 14.3599 35.5 14.2799 35.75 14.1899C37.8437 13.7432 39.9792 13.522 42.12 13.5299C42.65 13.5299 43.44 13.6599 43.98 13.7399C44.98 13.8599 44.76 13.3299 44.1 12.9899C42.3839 12.3324 40.5256 12.1358 38.71 12.4199Z" fill="#F9CC46"/>
</svg>
