<svg width="50" height="34" viewBox="0 0 50 34" fill="none" xmlns="http://www.w3.org/2000/svg">
<path d="M0.97561 17.1328C0.986631 17.1937 1.00316 17.2546 1.01969 17.3099C1.16847 17.9684 1.75806 18.4333 2.4303 18.4167H44.0873L31.1273 31.4323C30.8463 31.6979 30.692 32.0632 30.6865 32.4505C30.692 33.026 31.0392 33.5407 31.5736 33.7565C32.1026 33.9668 32.7142 33.8395 33.111 33.4245L48.4954 18.0182L49.4652 17L48.4954 15.9818L33.111 0.575527C32.7694 0.154953 32.2238 -0.0387344 31.6949 0.0830116C31.1714 0.204754 30.7581 0.619797 30.6369 1.14551C30.5157 1.67676 30.7085 2.22461 31.1273 2.56771L44.0873 15.5833L2.4303 15.5833C2.02255 15.5667 1.63132 15.7328 1.35581 16.026C1.07479 16.3249 0.937039 16.7288 0.97561 17.1328Z" fill="#045CD7"/>
</svg>
