<svg width="50" height="34" viewBox="0 0 50 34" fill="none" xmlns="http://www.w3.org/2000/svg">
<path d="M49.0244 16.8672C49.0134 16.8063 48.9968 16.7454 48.9803 16.6901C48.8315 16.0316 48.2419 15.5667 47.5697 15.5833L5.91274 15.5833L18.8727 2.5677C19.1537 2.30208 19.308 1.93684 19.3135 1.54947C19.308 0.973953 18.9608 0.459305 18.4264 0.243485C17.8974 0.0331988 17.2858 0.160476 16.889 0.575516L1.5046 15.9818L0.534805 17L1.5046 18.0182L16.889 33.4245C17.2306 33.845 17.7762 34.0387 18.3051 33.917C18.8286 33.7952 19.2419 33.3802 19.3631 32.8545C19.4843 32.3232 19.2915 31.7754 18.8727 31.4323L5.91274 18.4167L47.5697 18.4167C47.9775 18.4333 48.3687 18.2672 48.6442 17.974C48.9252 17.6751 49.063 17.2712 49.0244 16.8672Z" fill="#045CD7"/>
</svg>
