<svg width="24" height="36" viewBox="0 0 24 36" fill="none" xmlns="http://www.w3.org/2000/svg">
<path fill-rule="evenodd" clip-rule="evenodd" d="M12 0C5.39062 0 0 5.45557 0 12.1446C0 14.1032 0.763394 16.2244 1.76786 18.5422C2.77232 20.8599 4.05134 23.3133 5.35714 25.5904C7.96875 30.1446 10.6071 33.9398 10.6071 33.9398L12 36L13.3929 33.9398C13.3929 33.9398 16.0312 30.1446 18.6429 25.5904C19.9487 23.3133 21.2277 20.8599 22.2321 18.5422C23.2366 16.2244 24 14.1032 24 12.1446C24 5.45557 18.6094 0 12 0ZM12 3.46988C16.7545 3.46988 20.5714 7.33283 20.5714 12.1446C20.5714 13.0595 20.0491 15.0045 19.125 17.1325C18.2009 19.2605 16.9085 21.6461 15.6429 23.8554C13.9074 26.8875 12.9747 28.2946 12.1421 29.5506L12 29.7651L11.8579 29.5506C11.0253 28.2945 10.0926 26.8874 8.35714 23.8554C7.09152 21.6461 5.79911 19.2605 4.875 17.1325C3.95089 15.0045 3.42857 13.0595 3.42857 12.1446C3.42857 7.33283 7.24554 3.46988 12 3.46988ZM8.57143 12.1446C8.57143 10.2267 10.1049 8.6747 12 8.6747C13.8951 8.6747 15.4286 10.2267 15.4286 12.1446C15.4286 14.0625 13.8951 15.6145 12 15.6145C10.1049 15.6145 8.57143 14.0625 8.57143 12.1446Z" fill="#F3F7FB"/>
</svg>
