<svg width="50" height="35" viewBox="0 0 50 35" fill="none" xmlns="http://www.w3.org/2000/svg">
<path d="M49.0244 17.3673C49.0134 17.3064 48.9968 17.2456 48.9803 17.1902C48.8315 16.5317 48.2419 16.0668 47.5697 16.0835L5.91274 16.0835L18.8727 3.06783C19.1537 2.8022 19.308 2.43697 19.3135 2.0496C19.308 1.47408 18.9608 0.959427 18.4264 0.743607C17.8974 0.533321 17.2858 0.660598 16.889 1.07564L1.5046 16.4819L0.534805 17.5001L1.5046 18.5183L16.889 33.9246C17.2306 34.3452 17.7762 34.5389 18.3051 34.4171C18.8286 34.2954 19.2419 33.8803 19.3631 33.3546C19.4843 32.8234 19.2915 32.2755 18.8727 31.9324L5.91274 18.9168L47.5697 18.9168C47.9775 18.9334 48.3687 18.7674 48.6442 18.4741C48.9252 18.1752 49.063 17.7713 49.0244 17.3673Z" fill="#045CD7"/>
</svg>
