<svg width="50" height="35" viewBox="0 0 50 35" fill="none" xmlns="http://www.w3.org/2000/svg">
<path d="M0.97561 17.6327C0.986631 17.6936 1.00316 17.7544 1.01969 17.8098C1.16847 18.4683 1.75806 18.9332 2.4303 18.9165H44.0873L31.1273 31.9322C30.8463 32.1978 30.692 32.563 30.6865 32.9504C30.692 33.5259 31.0392 34.0406 31.5736 34.2564C32.1026 34.4667 32.7142 34.3394 33.111 33.9244L48.4954 18.5181L49.4652 17.4999L48.4954 16.4817L33.111 1.07541C32.7694 0.654831 32.2238 0.461143 31.6949 0.58289C31.1714 0.704632 30.7581 1.11967 30.6369 1.64539C30.5157 2.17664 30.7085 2.72449 31.1273 3.06759L44.0873 16.0832L2.4303 16.0832C2.02255 16.0666 1.63132 16.2326 1.35581 16.5259C1.07479 16.8248 0.937039 17.2287 0.97561 17.6327Z" fill="#045CD7"/>
</svg>
