<svg width="50" height="35" viewBox="0 0 50 35" fill="none" xmlns="http://www.w3.org/2000/svg">
<path d="M49.0244 17.3672C49.0134 17.3063 48.9968 17.2454 48.9803 17.1901C48.8315 16.5316 48.2419 16.0667 47.5697 16.0833L5.91274 16.0833L18.8727 3.0677C19.1537 2.80208 19.308 2.43684 19.3135 2.04947C19.308 1.47395 18.9608 0.959305 18.4264 0.743485C17.8974 0.533199 17.2858 0.660476 16.889 1.07552L1.5046 16.4818L0.534805 17.5L1.5046 18.5182L16.889 33.9245C17.2306 34.345 17.7762 34.5387 18.3051 34.417C18.8286 34.2952 19.2419 33.8802 19.3631 33.3545C19.4843 32.8232 19.2915 32.2754 18.8727 31.9323L5.91274 18.9167L47.5697 18.9167C47.9775 18.9333 48.3687 18.7672 48.6442 18.474C48.9252 18.1751 49.063 17.7712 49.0244 17.3672Z" fill="#045CD7"/>
</svg>
