<svg width="50" height="35" viewBox="0 0 50 35" fill="none" xmlns="http://www.w3.org/2000/svg">
<path d="M0.97561 17.6328C0.986631 17.6937 1.00316 17.7546 1.01969 17.8099C1.16847 18.4684 1.75806 18.9333 2.4303 18.9167H44.0873L31.1273 31.9323C30.8463 32.1979 30.692 32.5632 30.6865 32.9505C30.692 33.526 31.0392 34.0407 31.5736 34.2565C32.1026 34.4668 32.7142 34.3395 33.111 33.9245L48.4954 18.5182L49.4652 17.5L48.4954 16.4818L33.111 1.07553C32.7694 0.654953 32.2238 0.461266 31.6949 0.583012C31.1714 0.704754 30.7581 1.1198 30.6369 1.64551C30.5157 2.17676 30.7085 2.72461 31.1273 3.06771L44.0873 16.0833L2.4303 16.0833C2.02255 16.0667 1.63132 16.2328 1.35581 16.526C1.07479 16.8249 0.937039 17.2288 0.97561 17.6328Z" fill="#045CD7"/>
</svg>
